<?xml version="1.0" encoding="utf-8"?>
<!-- Generator: Adobe Illustrator 23.0.3, SVG Export Plug-In . SVG Version: 6.00 Build 0)  -->
<svg version="1.1" id="Laag_1" xmlns="http://www.w3.org/2000/svg" xmlns:xlink="http://www.w3.org/1999/xlink" x="0px" y="0px"
	 viewBox="0 0 675 333.5" style="enable-background:new 0 0 675 333.5;" xml:space="preserve">
<style type="text/css">
	.st0{fill:#183254;}
	.st1{fill:#EAEAEA;}
</style>
<g>
	<g>
		<g>
			<path class="st0" d="M294.5,198.9c-11.4,0-20.7,9.3-20.7,20.7s9.3,20.7,20.7,20.7c11.4,0,20.7-9.3,20.7-20.7
				S305.9,198.9,294.5,198.9z M294.5,233.3c-7.6,0-13.8-6.2-13.8-13.8c0-7.6,6.2-13.8,13.8-13.8s13.8,6.2,13.8,13.8
				C308.3,227.1,302.1,233.3,294.5,233.3z"/>
		</g>
	</g>
	<g>
		<g>
			<path class="st0" d="M411.6,198.9c-11.4,0-20.7,9.3-20.7,20.7s9.3,20.7,20.7,20.7c11.4,0,20.7-9.3,20.7-20.7
				C432.2,208.1,423,198.9,411.6,198.9z M411.6,233.3c-7.6,0-13.8-6.2-13.8-13.8c0-7.6,6.2-13.8,13.8-13.8c7.6,0,13.8,6.2,13.8,13.8
				C425.4,227.1,419.2,233.3,411.6,233.3z"/>
		</g>
	</g>
	<g>
		<g>
			<path class="st0" d="M452.4,179.8l-31-48.2c-0.6-1-1.7-1.6-2.9-1.6h-37.9c-1.9,0-3.4,1.5-3.4,3.4v86.1c0,1.9,1.5,3.4,3.4,3.4
				h13.8v-6.9H384v-79.2h32.6l29.4,45.8v33.4h-17.2v6.9h20.7c1.9,0,3.4-1.5,3.4-3.4v-37.9C452.9,181,452.7,180.4,452.4,179.8z"/>
		</g>
	</g>
	<g>
		<g>
			<path class="st0" d="M397.8,174.8v-24.1h27.5v-6.9h-31c-1.9,0-3.4,1.5-3.4,3.4v31c0,1.9,1.5,3.4,3.4,3.4H446v-6.9L397.8,174.8
				L397.8,174.8z"/>
		</g>
	</g>
	<g>
		<g>
			<path class="st0" d="M380.6,105.9H249.7c-1.9,0-3.4,1.5-3.4,3.4v110.2c0,1.9,1.5,3.4,3.4,3.4h27.5v-6.9h-24.1V112.8h124v103.3
				h-65.4v6.9h68.9c1.9,0,3.4-1.5,3.4-3.4V109.3C384,107.4,382.5,105.9,380.6,105.9z"/>
		</g>
	</g>
	<g>
		<g>
			<rect x="249.7" y="202.3" class="st0" width="20.7" height="6.9"/>
		</g>
	</g>
	<g>
		<g>
			<rect x="318.6" y="202.3" class="st0" width="58.5" height="6.9"/>
		</g>
	</g>
	<g>
		<g>
			<rect x="435.7" y="202.3" class="st0" width="13.8" height="6.9"/>
		</g>
	</g>
	<g>
		<g>
			<rect x="260.1" y="119.7" class="st0" width="120.5" height="6.9"/>
		</g>
	</g>
	<g>
		<g>
			<rect x="291.1" y="216.1" class="st0" width="6.9" height="6.9"/>
		</g>
	</g>
	<g>
		<g>
			<rect x="408.1" y="216.1" class="st0" width="6.9" height="6.9"/>
		</g>
	</g>
</g>
<path class="st1" d="M344.3,325.4c-87,0-157.8-70.8-157.8-157.8c0-87,70.8-157.8,157.8-157.8c87,0,157.8,70.8,157.8,157.8
	C502,254.6,431.3,325.4,344.3,325.4z M344.3,31.8c-74.9,0-135.8,60.9-135.8,135.8c0,74.9,60.9,135.8,135.8,135.8
	c74.9,0,135.8-60.9,135.8-135.8C480,92.7,419.1,31.8,344.3,31.8z"/>
</svg>
